<?xml version="1.0" encoding="UTF-8"?>
<svg id="uuid-5d297185-f9dd-48cb-b904-127696e5bf0f" data-name="uuid-cd33ac42-f3b0-495b-a0f6-b2985faba195" xmlns="http://www.w3.org/2000/svg" viewBox="0 0 242.82 337.39">
  <defs>
    <style>
      .uuid-9ed3b132-2f08-40f4-a43a-7e754ae154b5 {
        stroke-width: 0px;
      }

      .uuid-fdb52979-06fd-4312-b7bc-380038cacd99 {
        fill: #f9cb00;
        stroke: #eaa400;
        stroke-miterlimit: 10;
        stroke-width: 2px;
      }
    </style>
  </defs>
  <path class="uuid-9ed3b132-2f08-40f4-a43a-7e754ae154b5" d="m177.13,336.53c-43.2.72-86.41,1.01-129.61.79-6.97-.04-13.94.16-20.9-.08-12.4-.43-18.2-7.56-16.84-19.9.65-5.92,1.05-11.45,7.81-14.28,2.97-1.24,2.11-5.31,2.44-8.19,1.27-11.41,3-22.69,6.66-33.65,6.08-18.22,14.96-34.78,28.35-48.68,7.65-7.93,16.85-13.99,25.72-20.44,3.09-2.25,6.32-4.39,9-7.07,10.97-10.98,9.49-27.01-3.27-36.77-6.98-5.34-14.75-9.53-21.41-15.42-26.29-23.26-40.8-52.35-44.03-87.17-.53-5.72-1.17-10.7-7.19-14.03-5.03-2.78-6.35-12.82-3.93-19.81C12.38,4.74,16.7,1.25,23.84,1.08,60.06.23,96.3-.53,132.51.49c27.92.79,55.83.22,83.74.57,9.4.12,13.57,4.22,13.65,13.73.02,2.66-.2,5.33.02,7.98.46,5.48-1.4,9.47-6.79,11.31-2.65.91-3.35,2.84-3.61,5.35-.89,8.74-1.33,17.51-3.05,26.19-5.77,29.08-21.15,52-44.27,70.05-6.94,5.42-14.07,10.6-20.97,16.06-12.31,9.75-12.72,25.18-1.02,35.71,4.72,4.25,10.41,7.13,15.64,10.65,30.17,20.32,45.64,49.67,51.95,84.61.94,5.22,1.51,10.52,1.94,15.81.22,2.7,1.2,4.2,3.85,5.02,5.15,1.59,7.25,5.46,7.25,10.66,0,2.16.07,4.32.05,6.48-.1,10.76-5.21,15.86-15.87,15.86h-37.9.01ZM91.51,35.07v-.81c-16.45,0-32.9-.04-49.35.01-11.69.04-11.93.12-10.75,11.5,3.22,31.04,16.45,57.12,39.31,78.36,6.87,6.38,15.17,10.74,22.56,16.38,19.03,14.5,19.97,37.23,1.9,52.79-6.4,5.51-13.54,10.16-20.27,15.31-11.05,8.47-20.44,18.48-27.43,30.59-9.97,17.25-15.19,36.01-17.61,55.67-.87,7.08-.68,7.48,6.32,7.43,36.72-.24,73.43.21,110.15-.63,19.58-.45,39.19.29,58.79.63,4.38.08,5.58-1.18,5.06-5.84-1.19-10.62-3.27-20.97-6.56-31.12-8.05-24.83-22.1-45.16-44.23-59.54-5.01-3.26-10.13-6.44-14.71-10.24-16.54-13.72-17.22-32.95-2.25-48.14,7.29-7.4,16.01-12.93,24-19.42,28.14-22.84,41.38-52.82,43.16-88.48.17-3.39-.82-4.56-4.43-4.55-37.88.13-75.75.08-113.63.08l-.03.02Z"/>
  <path class="uuid-9ed3b132-2f08-40f4-a43a-7e754ae154b5" d="m242.67,168.3c0,20.92.06,41.84-.02,62.76-.04,10.29-4.96,17.87-13.53,21.22-2.47.97-5.49,2.27-6.54-1.57-.93-3.41-4.73-7.56.98-10.27,5.39-2.56,7.06-6.66,7.03-12.45-.17-34.53-.04-69.07-.12-103.6-.02-6.96-.56-13.92-.69-20.88-.06-3.55-1.65-5.86-4.61-7.65-3.52-2.13-4.59-9.61-1.99-12.65,1.22-1.43,2.68-.89,4.14-.54,9.09,2.18,15.48,11.37,15.49,22.39.02,21.09,0,42.17,0,63.26h-.13v-.02Z"/>
  <path class="uuid-9ed3b132-2f08-40f4-a43a-7e754ae154b5" d="m.07,168.32c0-22.09-.09-44.19.04-66.28.06-10.74,4.55-16.59,13.41-18.09,1.97-.33,4.9-1.47,5.37,1.62.48,3.12,3.31,7.37-1.04,9.42-5.94,2.8-6.7,7.27-6.68,13.02.15,40.2.13,80.4,0,120.6-.02,5.18.94,9.38,5.59,12.41,3.82,2.48,3.03,6.35,1.86,9.9-.82,2.5-3.03,2.13-5.06,1.64C5.18,250.53.07,243.88.04,234.59c-.07-22.09-.02-44.19-.02-66.28h.05Z"/>
  <path class="uuid-fdb52979-06fd-4312-b7bc-380038cacd99" d="m197.09,38.6c1.68,1.6,1.19,3.68,1.22,5.64.51,30.04-13.02,53.05-35.3,72.08-9.57,8.17-19.09,16.49-27.25,26.24-9.28,11.1-11.72,24.42-12.85,38.07-.85,10.24-1.01,20.57.39,30.85,2.4,17.64,13.18,28.7,28.19,36.75,9.92,5.33,20.2,10.25,27.79,19.05,4.62,5.36,8.26,11.17,9.76,18.23.81,3.83-.13,5.76-4.25,5.77-27.73.09-55.45,1.45-83.2.27-15.6-.66-31.24-.25-46.86-.36-5.96-.04-6.33-.65-5.14-6.36,2.67-12.85,11.06-21.31,21.62-27.96,6.32-3.98,12.92-7.5,19.4-11.24,15.93-9.19,24.52-22.57,25.07-41.34.38-13.14,1.14-26.2-1.38-39.21-2.23-11.52-8.1-21.01-16.33-29.08-11.26-11.04-23.48-21.09-33.72-33.17-9.1-10.74-16.57-22.37-21.05-35.85-1.48-4.46-.51-6.68,4.03-8.15,22.64-7.35,45.16-6.26,67.66.54,10.96,3.31,21.57,7.86,32.98,9.55,6.95,1.03,13.93,1.12,20.76-.84,2.32-.66,4.78-1.2,5.83-4.07,1.95-5.32.83-7.39-4.65-8.49-5.32-1.07-10.94-1.29-15.48-4.88,5.01,1.1,10,2.32,15.04,3.27,7.33,1.38,8.28,2.78,6.51,10.36-2.5,10.68-7.46,20.17-13.75,29.07-4.35,6.15-10.07,11.01-16.13,16.98,33.54-11.76,50.26-36.86,51.08-71.72h.01Z"/>
</svg>